# xmcd CD database file
#
# Track frame offsets:
#	150
#	15376
#	30341
#	43723
#	62633
#	75873
#	87382
#	104930
#	124156
#	134577
#	151189
#	161808
#	185428
#	206144
#	221233
#	230214
#	246744
#	258952
#	274288
#	286915
#
# Disc length: 4158 seconds
#
# Revision: 1
# Processed by: cddbd v1.5.1PL0 Copyright (c) Steve Scherf et al.
# Submitted via: CDex 1.51
#
DISCID=2d103c14
DTITLE=Lynne Truss - Eats, Shoots and Leaves: Cutting a Dash - The Radio Series That Inspired the Hit Book
DYEAR=2004
DGENRE=Speech
TTITLE0=Introduction - Apostrophe and Apologia
TTITLE1=The Rules of the Apostrophe
TTITLE2=Apostropher Royal and Greengrocers
TTITLE3=Apostrophe Protection Society
TTITLE4=The Comma
TTITLE5=The Beginning of Punctuation
TTITLE6=Lawyers Against Commas
TTITLE7=The Punctuation Project
TTITLE8=Semi-Colon as a Weapon of Literary Snobbery
TTITLE9=Colons And Semi-Colons
TTITLE10=George Bernard Shaw
TTITLE11=T. E. Lawrence
TTITLE12=Authors and Punctuation
TTITLE13=Newspapers and Expressive Punctuation
TTITLE14=Copy Editors
TTITLE15=The Exclamation Mark
TTITLE16=New Communication, New Punctuation
TTITLE17=Bullet Point Culture
TTITLE18=Eliminating Punctuation
TTITLE19=Emoticons
EXTD=YEAR: 2004
EXTT0=
EXTT1=
EXTT2=
EXTT3=
EXTT4=
EXTT5=
EXTT6=
EXTT7=
EXTT8=
EXTT9=
EXTT10=
EXTT11=
EXTT12=
EXTT13=
EXTT14=
EXTT15=
EXTT16=
EXTT17=
EXTT18=
EXTT19=
PLAYORDER=
